<svg width="174" height="170" viewBox="0 0 174 170" fill="none" xmlns="http://www.w3.org/2000/svg">
<path d="M1.42422 29.3328L0.589834 10.9764C0.532605 9.7173 1.00773 8.49227 1.89893 7.60107C2.6121 6.8879 3.54481 6.4359 4.54648 6.31806L20 4.5L59.5 1H145.919C146.305 1 146.691 1.03739 147.071 1.11164L167.704 5.14855C168.875 5.37764 169.951 5.95061 170.794 6.79426L171.243 7.24264C172.368 8.36786 173 9.89398 173 11.4853V29.7003C173 30.5569 172.817 31.4034 172.462 32.1832L171.497 34.3067C170.857 35.7143 169.699 36.8205 168.263 37.3948L166.573 38.0709C165.864 38.3543 165.108 38.5 164.344 38.5H158H141.5L90 36.5L33 38.5H9.7111C7.70498 38.5 5.8316 37.4974 4.7188 35.8282L2.42573 32.3886C1.82007 31.4801 1.4738 30.4236 1.42422 29.3328Z" fill="#FFD17D" stroke="black" stroke-opacity="0.2"/>
<path d="M37 145L13.5347 41.3615C13.2573 40.1365 14.1646 38.9619 15.42 38.9209L89.5 36.5L157.7 38.9185C158.915 38.9615 159.811 40.0691 159.599 41.2658L141.5 143.5H148.967C150.403 143.5 151.371 144.968 150.805 146.288L142.02 166.788C141.704 167.523 140.981 168 140.181 168H131.5L89 169.5H39.7944C39.0067 169.5 38.2924 169.038 37.9698 168.319L28.7658 147.819C28.1716 146.496 29.1397 145 30.5903 145H37Z" fill="#FFDC7E"/>
<path d="M37 145L13.5347 41.3615C13.2573 40.1365 14.1646 38.9619 15.42 38.9209L89.5 36.5L157.7 38.9185C158.915 38.9615 159.811 40.0691 159.599 41.2658L141.5 143.5M37 145L141.5 143.5M37 145H30.5903C29.1397 145 28.1716 146.496 28.7658 147.819L37.9698 168.319C38.2924 169.038 39.0067 169.5 39.7944 169.5H89L131.5 168H140.181C140.981 168 141.704 167.523 142.019 166.788L150.805 146.288C151.371 144.968 150.403 143.5 148.967 143.5H141.5" stroke="black" stroke-opacity="0.2"/>
</svg>
