<svg xmlns="http://www.w3.org/2000/svg" xmlns:xlink="http://www.w3.org/1999/xlink" version="1.1" x="0px" y="0px" viewBox="0 0 32 40" enable-background="new 0 0 32 32" xml:space="preserve"><path d="M15.987,0c-0.434,0.002-0.821,0.267-0.984,0.669c-1.055,2.633-3.611,6.099-5.937,9.583  c-2.325,3.483-4.495,6.981-4.495,10.339C4.571,26.878,9.698,32,15.996,32s11.433-5.122,11.433-11.409  c0-3.357-2.17-6.855-4.496-10.339c-2.325-3.484-4.889-6.95-5.945-9.583C16.824,0.262,16.427-0.004,15.987,0z M15.996,3.071  c1.38,2.692,3.244,5.496,5.157,8.361c2.28,3.417,4.142,6.805,4.142,9.159c0,5.131-4.151,9.275-9.299,9.275  c-5.148,0-9.292-4.144-9.292-9.275c0-2.354,1.854-5.742,4.135-9.159C12.751,8.567,14.615,5.763,15.996,3.071z M22.886,18.361  c-0.587,0.012-1.055,0.493-1.047,1.079c0,3.229-2.604,5.827-5.843,5.827c-0.59-0.002-1.069,0.474-1.071,1.063  c-0.002,0.59,0.475,1.069,1.063,1.071c0.002,0,0.006,0,0.008,0c4.391,0,7.976-3.576,7.976-7.96c0.008-0.589-0.466-1.072-1.054-1.079  C22.907,18.361,22.896,18.361,22.886,18.361z"/><text x="0" y="47" fill="#000000" font-size="5px" font-weight="bold" font-family="'Helvetica Neue', Helvetica, Arial-Unicode, Arial, Sans-serif">Created by karacis studio</text><text x="0" y="52" fill="#000000" font-size="5px" font-weight="bold" font-family="'Helvetica Neue', Helvetica, Arial-Unicode, Arial, Sans-serif">from the Noun Project</text></svg>